#tb 0: 1/25
0,          0,          0,        1,  1382400, 0xaea37937
0,          1,          1,        1,  1382400, 0x39d687d0
0,          2,          2,        1,  1382400, 0x8ea04595
0,          3,          3,        1,  1382400, 0x5d5a40d2
0,          4,          4,        1,  1382400, 0x6915eb4e
0,          5,          5,        1,  1382400, 0xe8bb612d
0,          6,          6,        1,  1382400, 0xd331085a
0,          7,          7,        1,  1382400, 0x2193bc30
0,          8,          8,        1,  1382400, 0xaeb19418
0,          9,          9,        1,  1382400, 0xb524eac3
0,         10,         10,        1,  1382400, 0x141908a2
0,         11,         11,        1,  1382400, 0x527ab6ac
0,         12,         12,        1,  1382400, 0xe9a73d9f
0,         13,         13,        1,  1382400, 0x2eb0aa14
0,         14,         14,        1,  1382400, 0x6981af42
0,         15,         15,        1,  1382400, 0xbb0bbd7a
0,         16,         16,        1,  1382400, 0xf0779b81
